# xmcd
#
# Track frame offsets: 
#        150
#        19683
#        48607
#        69270
#        96566
#        115262
#        146041
#        161515
#        187396
#        197315
#        222928
#        255029
#
# Disc length: 4065 seconds
#
# Revision: 2
# Processed by: cddbd v1.5.2PL0 Copyright (c) Steve Scherf et al.
# Submitted via: ExactAudioCopy v1.0b3
#
DISCID=aa0fdf0c
DTITLE=Jaroslaw Smietana, Zbigniew Paleta - vis-a-vis
DYEAR=1900
DGENRE=Jazz
TTITLE0=Krakus
TTITLE1=Angel Eyes
TTITLE2=Armandos Rhumba
TTITLE3=Flowers in maind
TTITLE4=Four Brothers
TTITLE5=Lush Life
TTITLE6=Oberek
TTITLE7=Cala jestes w skowronkach
TTITLE8=Blackbird
TTITLE9=Island Blues
TTITLE10=Pozegnania
TTITLE11=Pozegnanjia?
EXTD=
EXTT0=
EXTT1=
EXTT2=
EXTT3=
EXTT4=
EXTT5=
EXTT6=
EXTT7=
EXTT8=
EXTT9=
EXTT10=
EXTT11=
PLAYORDER=
